<svg width="144" height="32" viewBox="0 0 144 32" fill="none" xmlns="http://www.w3.org/2000/svg">
<path d="M38.6823 25.5999C37.4699 25.5999 36.2856 25.4114 35.1292 25.0344C33.9915 24.6573 33.0683 24.1484 32.3596 23.5074L34.1501 20.5101C34.6723 20.9813 35.3997 21.4055 36.3322 21.7825C37.2834 22.1407 38.1414 22.3198 38.9061 22.3198C40.1184 22.3198 40.7245 21.971 40.7245 21.2735C40.7245 20.9531 40.4541 20.7174 39.9132 20.5666C39.3723 20.397 38.7196 20.2556 37.9549 20.1425C37.1902 20.0105 36.4162 19.822 35.6328 19.5769C34.8681 19.3319 34.2153 18.8889 33.6745 18.2479C33.1336 17.607 32.8631 16.7775 32.8631 15.7596C32.8631 14.4965 33.376 13.4314 34.4018 12.5643C35.4277 11.6971 36.8451 11.2635 38.6543 11.2635C40.7805 11.2635 42.6643 11.8668 44.3055 13.0732L42.6549 15.9575C42.226 15.5428 41.6478 15.194 40.9204 14.9112C40.193 14.6096 39.447 14.4588 38.6823 14.4588C38.1787 14.4588 37.7684 14.5531 37.4513 14.7416C37.1342 14.9301 36.9757 15.1657 36.9757 15.4485C36.9757 15.7313 37.2461 15.9481 37.787 16.0989C38.3279 16.2308 38.9807 16.3722 39.7454 16.523C40.5101 16.655 41.2748 16.8529 42.0394 17.1168C42.8228 17.3808 43.4849 17.852 44.0258 18.5307C44.5667 19.1905 44.8371 20.0388 44.8371 21.0756C44.8371 22.414 44.2869 23.5074 43.1865 24.3557C42.0861 25.1852 40.5847 25.5999 38.6823 25.5999Z" fill="#30332E"/>
<path d="M53.5483 25.5999C51.4221 25.5999 49.6596 24.9495 48.2607 23.6488C46.8619 22.3292 46.1625 20.5855 46.1625 18.4176C46.1625 16.4005 46.8339 14.7039 48.1768 13.3277C49.5383 11.9516 51.2635 11.2635 53.3525 11.2635C55.3854 11.2635 57.0454 11.961 58.3323 13.356C59.6192 14.7322 60.2627 16.5702 60.2627 18.87V19.8031H50.6387C50.7693 20.4818 51.133 21.0568 51.7298 21.528C52.3267 21.9993 53.0914 22.235 54.0239 22.235C54.5461 22.235 55.143 22.1313 55.8144 21.9239C56.5045 21.6977 57.0267 21.4149 57.3811 21.0756L59.1996 23.7902C58.5468 24.3746 57.7075 24.827 56.6817 25.1475C55.6745 25.4491 54.6301 25.5999 53.5483 25.5999ZM56.1501 16.9755C56.0755 16.3722 55.8144 15.835 55.3668 15.3637C54.9192 14.8735 54.2477 14.6285 53.3525 14.6285C52.5132 14.6285 51.8697 14.8641 51.4221 15.3354C50.9745 15.8067 50.6947 16.3534 50.5828 16.9755H56.1501Z" fill="#30332E"/>
<path d="M66.6931 25.2606H62.3847V6.3999H66.6931V25.2606Z" fill="#30332E"/>
<path d="M74.1244 25.2606H69.816V6.3999H74.1244V25.2606Z" fill="#30332E"/>
<path d="M83.7379 25.5999C81.6116 25.5999 79.8491 24.9495 78.4503 23.6488C77.0514 22.3292 76.352 20.5855 76.352 18.4176C76.352 16.4005 77.0235 14.7039 78.3663 13.3277C79.7279 11.9516 81.4531 11.2635 83.542 11.2635C85.575 11.2635 87.2349 11.961 88.5218 13.356C89.8088 14.7322 90.4522 16.5702 90.4522 18.87V19.8031H80.8283C80.9588 20.4818 81.3225 21.0568 81.9194 21.528C82.5162 21.9993 83.2809 22.235 84.2135 22.235C84.7357 22.235 85.3325 22.1313 86.004 21.9239C86.694 21.6977 87.2163 21.4149 87.5706 21.0756L89.3891 23.7902C88.7363 24.3746 87.897 24.827 86.8712 25.1475C85.8641 25.4491 84.8196 25.5999 83.7379 25.5999ZM86.3397 16.9755C86.2651 16.3722 86.0039 15.835 85.5563 15.3637C85.1087 14.8735 84.4373 14.6285 83.542 14.6285C82.7027 14.6285 82.0593 14.8641 81.6116 15.3354C81.164 15.8067 80.8842 16.3534 80.7723 16.9755H86.3397Z" fill="#30332E"/>
<path d="M99.0648 25.5999C96.9386 25.5999 95.1761 24.9401 93.7773 23.6205C92.3785 22.2821 91.679 20.5478 91.679 18.4176C91.679 16.3062 92.3785 14.5908 93.7773 13.2712C95.1761 11.9327 96.9386 11.2635 99.0648 11.2635C100.408 11.2635 101.545 11.5086 102.478 11.9987C103.429 12.4889 104.138 13.0827 104.604 13.7802L101.807 16.4099C101.228 15.5428 100.38 15.1092 99.2607 15.1092C98.3468 15.1092 97.5914 15.4108 96.9946 16.014C96.3978 16.5984 96.0993 17.3996 96.0993 18.4176C96.0993 19.4355 96.3978 20.2462 96.9946 20.8494C97.5914 21.4526 98.3468 21.7542 99.2607 21.7542C100.342 21.7542 101.191 21.3112 101.807 20.4252L104.604 23.0833C104.138 23.7808 103.429 24.3746 102.478 24.8647C101.545 25.3548 100.408 25.5999 99.0648 25.5999Z" fill="#30332E"/>
<path d="M113.025 25.5999C110.806 25.5999 109.024 24.9024 107.682 23.5074C106.339 22.1124 105.667 20.4158 105.667 18.4176C105.667 16.4193 106.339 14.7322 107.682 13.356C109.024 11.961 110.806 11.2635 113.025 11.2635C115.263 11.2635 117.054 11.961 118.397 13.356C119.74 14.7322 120.411 16.4193 120.411 18.4176C120.411 20.4158 119.74 22.1124 118.397 23.5074C117.054 24.9024 115.263 25.5999 113.025 25.5999ZM110.871 20.8211C111.393 21.4432 112.111 21.7542 113.025 21.7542C113.939 21.7542 114.657 21.4432 115.179 20.8211C115.72 20.1802 115.991 19.379 115.991 18.4176C115.991 17.475 115.72 16.6927 115.179 16.0706C114.657 15.4297 113.939 15.1092 113.025 15.1092C112.111 15.1092 111.393 15.4297 110.871 16.0706C110.367 16.6927 110.116 17.475 110.116 18.4176C110.116 19.379 110.367 20.1802 110.871 20.8211Z" fill="#30332E"/>
<path d="M144 25.2606H139.72V16.9472C139.72 15.7218 139.123 15.1092 137.929 15.1092C136.959 15.1092 136.148 15.5522 135.495 16.4382V25.2606H131.187V16.9472C131.187 15.7218 130.59 15.1092 129.396 15.1092C128.501 15.1092 127.699 15.5522 126.99 16.4382V25.2606H122.682V11.6028H126.99V13.2712C127.345 12.7999 127.932 12.3475 128.753 11.9139C129.573 11.4803 130.469 11.2635 131.439 11.2635C133.434 11.2635 134.712 12.0741 135.271 13.6953C135.7 13.0355 136.334 12.47 137.174 11.9987C138.032 11.5086 138.955 11.2635 139.943 11.2635C141.23 11.2635 142.228 11.6123 142.937 12.3098C143.646 12.9884 144 14.0064 144 15.3637V25.2606Z" fill="#30332E"/>
<path fill-rule="evenodd" clip-rule="evenodd" d="M25.2536 7.07812C26.099 7.98241 26.099 9.44855 25.2536 10.3528L16.0531 20.194C15.2077 21.0983 13.837 21.0983 12.9916 20.194L10.5535 17.5862L3.69558 24.9217C2.85016 25.826 1.47948 25.826 0.634061 24.9217C-0.211354 24.0174 -0.211354 22.5513 0.634061 21.647L9.02274 12.6741C9.86815 11.7698 11.2388 11.7698 12.0843 12.6741L14.5223 15.282L22.1921 7.07812C23.0375 6.17383 24.4082 6.17383 25.2536 7.07812Z" fill="#2464E0"/>
</svg>
